<svg width="40" height="40" viewBox="0 0 40 40" fill="none" xmlns="http://www.w3.org/2000/svg">
<path d="M31.6667 28.3333V31.6667H11.6667V28.3333C11.6667 28.3333 11.6667 21.6667 21.6667 21.6667C31.6667 21.6667 31.6667 28.3333 31.6667 28.3333ZM26.6667 13.3333C26.6667 12.3444 26.3734 11.3777 25.824 10.5555C25.2746 9.73325 24.4937 9.09239 23.5801 8.71395C22.6665 8.33551 21.6611 8.23649 20.6912 8.42942C19.7213 8.62235 18.8304 9.09855 18.1311 9.79781C17.4319 10.4971 16.9557 11.388 16.7627 12.3579C16.5698 13.3278 16.6688 14.3331 17.0473 15.2468C17.4257 16.1604 18.0666 16.9413 18.8888 17.4907C19.7111 18.0401 20.6778 18.3333 21.6667 18.3333C22.9927 18.3333 24.2645 17.8066 25.2022 16.8689C26.1399 15.9312 26.6667 14.6594 26.6667 13.3333ZM32 21.7667C32.9111 22.6072 33.6456 23.6207 34.1606 24.7482C34.6757 25.8757 34.9611 27.0944 35 28.3333V31.6667H40V28.3333C40 28.3333 40 22.5833 32 21.7667ZM30 8.33335C29.4964 8.33337 28.9959 8.4121 28.5167 8.56668C29.4918 9.96496 30.0146 11.6287 30.0146 13.3333C30.0146 15.038 29.4918 16.7017 28.5167 18.1C28.9959 18.2546 29.4964 18.3333 30 18.3333C31.3261 18.3333 32.5979 17.8066 33.5355 16.8689C34.4732 15.9312 35 14.6594 35 13.3333C35 12.0073 34.4732 10.7355 33.5355 9.79781C32.5979 8.86013 31.3261 8.33335 30 8.33335ZM13.3333 16.6667H8.33333V11.6667H5V16.6667H0V20H5V25H8.33333V20H13.3333V16.6667Z" fill="#FF7900"/>
</svg>
