<svg width="35" height="35" viewBox="0 0 35 35" fill="none" xmlns="http://www.w3.org/2000/svg">
<path d="M27.7083 4.37501C28.7415 4.37347 29.7419 4.73765 30.5323 5.40303C31.3228 6.06841 31.8522 6.99206 32.0269 8.01038C32.2015 9.02871 32.0102 10.076 31.4867 10.9667C30.9632 11.8575 30.1413 12.5342 29.1667 12.8771V18.9583C29.1667 21.279 28.2448 23.5046 26.6038 25.1455C24.9629 26.7865 22.7373 27.7083 20.4167 27.7083H19.5635L21.4477 29.594C21.6988 29.8451 21.8496 30.1792 21.8719 30.5336C21.8942 30.888 21.7864 31.2384 21.5687 31.519L21.4477 31.6561C21.1742 31.9295 20.8034 32.083 20.4167 32.083C20.03 32.083 19.6591 31.9295 19.3856 31.6561L15.0704 27.3408C14.9246 27.2102 14.8065 27.0515 14.7233 26.8742L14.6679 26.7415L14.6271 26.6044C14.5702 26.3873 14.5652 26.1598 14.6126 25.9404C14.6599 25.7209 14.7583 25.5158 14.8998 25.3415L15.0106 25.219L19.3856 20.844C19.6607 20.5783 20.029 20.4313 20.4114 20.4347C20.7938 20.438 21.1595 20.5914 21.4299 20.8617C21.7003 21.1321 21.8537 21.4979 21.857 21.8803C21.8603 22.2626 21.7133 22.631 21.4477 22.9061L19.5621 24.7917H20.4167C21.9133 24.7917 23.3526 24.2165 24.437 23.185C25.5214 22.1535 26.1679 20.7447 26.2427 19.25L26.25 18.9583V12.8756C25.3969 12.574 24.6583 12.0153 24.1359 11.2764C23.6136 10.5375 23.3332 9.65488 23.3333 8.75001L23.3406 8.49335C23.4061 7.37934 23.8948 6.33245 24.7067 5.56689C25.5186 4.80132 26.5924 4.37495 27.7083 4.37501ZM15.6144 3.34397L19.9894 7.71897C20.17 7.89543 20.3006 8.11659 20.368 8.35995C20.4354 8.6033 20.4371 8.86017 20.3729 9.10439L20.3583 9.1496L20.3539 9.17585L20.3423 9.2021L20.3321 9.24147L20.3087 9.29251L20.2942 9.33918L20.2839 9.35376L20.2767 9.37418C20.1954 9.54861 20.0804 9.70523 19.9383 9.83501L15.6144 14.1561C15.3633 14.4071 15.0291 14.558 14.6747 14.5803C14.3203 14.6026 13.97 14.4948 13.6894 14.2771L13.5523 14.1561C13.2789 13.8826 13.1253 13.5117 13.1253 13.125C13.1253 12.7383 13.2789 12.3675 13.5523 12.094L15.435 10.2083H14.5833C13.0867 10.2083 11.6474 10.7836 10.563 11.815C9.47858 12.8465 8.83211 14.2553 8.75728 15.75L8.74999 16.0417V22.1244C9.50671 22.3915 10.1754 22.8616 10.683 23.4832C11.1905 24.1047 11.5174 24.8539 11.6279 25.6488C11.7384 26.4436 11.6282 27.2535 11.3094 27.9899C10.9906 28.7264 10.4754 29.361 9.82021 29.8244C9.16502 30.2877 8.39505 30.5621 7.59447 30.6173C6.79389 30.6726 5.99353 30.5066 5.28089 30.1377C4.56826 29.7687 3.9708 29.2109 3.55383 28.5252C3.13686 27.8396 2.91643 27.0525 2.91666 26.25L2.92395 25.9933C2.97404 25.1335 3.27684 24.3075 3.79439 23.619C4.31195 22.9304 5.02123 22.41 5.83332 22.1229V16.0417C5.83332 13.721 6.7552 11.4954 8.39614 9.8545C10.0371 8.21355 12.2627 7.29168 14.5833 7.29168H15.4364L13.5523 5.40606C13.3012 5.15494 13.1504 4.82084 13.1281 4.46642C13.1058 4.11201 13.2136 3.76164 13.4312 3.48106L13.5523 3.34397C13.8258 3.07058 14.1966 2.91699 14.5833 2.91699C14.97 2.91699 15.3409 3.07058 15.6144 3.34397Z" fill="#FF7900"/>
</svg>
