<svg width="24" height="24" viewBox="0 0 24 24" fill="none" xmlns="http://www.w3.org/2000/svg">
<path d="M12.707 2.293L21.707 11.293C22.337 11.923 21.891 13 21 13H20V19C20 19.7956 19.6839 20.5587 19.1213 21.1213C18.5587 21.6839 17.7957 22 17 22H16V15C16 14.2348 15.7077 13.4985 15.1827 12.9417C14.6578 12.385 13.9399 12.0499 13.176 12.005L13 12H11C10.2044 12 9.44129 12.3161 8.87868 12.8787C8.31607 13.4413 8 14.2044 8 15V22H7C6.20435 22 5.44129 21.6839 4.87868 21.1213C4.31607 20.5587 4 19.7956 4 19V13H3C2.11 13 1.663 11.923 2.293 11.293L11.293 2.293C11.4805 2.10553 11.7348 2.00021 12 2.00021C12.2652 2.00021 12.5195 2.10553 12.707 2.293ZM13 14C13.2652 14 13.5196 14.1054 13.7071 14.2929C13.8946 14.4804 14 14.7348 14 15V22H10V15C10 14.7551 10.09 14.5187 10.2527 14.3356C10.4155 14.1526 10.6398 14.0357 10.883 14.007L11 14H13Z" fill="#FF7900"/>
</svg>
