<svg width="31" height="31" viewBox="0 0 31 31" fill="none" xmlns="http://www.w3.org/2000/svg">
<path d="M19.0986 26.9795C18.8186 27.5403 18.4102 28.031 17.9023 28.4092C17.208 28.9261 16.3657 29.2061 15.5 29.2061C14.6343 29.2061 13.792 28.9261 13.0977 28.4092C12.5898 28.031 12.1814 27.5403 11.9014 26.9795H19.0986ZM15.5 2.4375C16.6217 2.4375 17.7323 2.65866 18.7686 3.08789C19.8049 3.51715 20.7469 4.14629 21.54 4.93945C22.333 5.7325 22.9624 6.67384 23.3916 7.70996C23.8209 8.74628 24.042 9.85778 24.042 10.9795V17.5889L24.126 17.7148L26.625 21.4629V24.6875H4.375V21.4629L6.87402 17.7148L6.95801 17.5889V10.9795C6.95801 9.85778 7.17914 8.74628 7.6084 7.70996C8.03763 6.67384 8.66696 5.7325 9.45996 4.93945C10.2531 4.14629 11.1951 3.51715 12.2314 3.08789C13.2677 2.65866 14.3783 2.4375 15.5 2.4375Z" fill="#EEEEEE" stroke="#FF7900"/>
</svg>
