<svg width="55" height="55" viewBox="0 0 55 55" fill="none" xmlns="http://www.w3.org/2000/svg">
<path d="M40.1041 38.5459L45.6958 41.7771L43.9771 44.7563L36.6666 40.5396V32.0834H40.1041V38.5459ZM55 38.9584C55 47.8271 47.8271 55 38.9583 55C30.0896 55 22.9166 47.8271 22.9166 38.9584C22.9166 38.1792 22.9854 37.4229 23.1 36.6667H4.58331V9.16669H45.8333V24.475C51.2416 27.0646 55 32.5646 55 38.9584ZM24.475 32.0834C24.8875 31.2584 25.3229 30.4792 25.85 29.7229C25.6437 29.7917 25.4375 29.7917 25.2083 29.7917C21.4041 29.7917 18.3333 26.7209 18.3333 22.9167C18.3333 19.1125 21.4041 16.0417 25.2083 16.0417C29.0125 16.0417 32.0833 19.1125 32.0833 22.9167C32.0833 23.4896 31.9916 24.0625 31.8541 24.5896C34.0083 23.5354 36.4146 22.9167 38.9583 22.9167C39.7375 22.9167 40.4937 22.9854 41.25 23.1V18.3334C40.0344 18.3334 38.8686 17.8505 38.0091 16.9909C37.1495 16.1314 36.6666 14.9656 36.6666 13.75H13.75C13.75 16.2938 11.7104 18.3334 9.16665 18.3334V27.5C10.3822 27.5 11.548 27.9829 12.4076 28.8424C13.2671 29.702 13.75 30.8678 13.75 32.0834H24.475ZM50.4166 38.9584C50.4166 32.6334 45.2833 27.5 38.9583 27.5C32.6333 27.5 27.5 32.6334 27.5 38.9584C27.5 45.2834 32.6333 50.4167 38.9583 50.4167C45.2833 50.4167 50.4166 45.2834 50.4166 38.9584Z" fill="#FF7900"/>
</svg>
